<svg width="119" height="38" viewBox="0 0 119 38" fill="none" xmlns="http://www.w3.org/2000/svg">
<g filter="url(#filter0_d_78_3)">
<rect width="115" height="34" transform="translate(2)" fill="#FCFCFC"/>
<path d="M16.3779 15.5491V22.5207C16.3779 23.7397 17.3661 24.7279 18.5851 24.7279H26.2363H26.9998C28.4473 24.7279 29.6208 23.5543 29.6208 22.1068V20.1421V15.5491H16.3779Z" fill="#BE2A44"/>
<path d="M21.6688 14.03C21.6688 13.9142 21.7627 13.8203 21.8785 13.8203H24.1077C24.2235 13.8203 24.3174 13.9142 24.3174 14.03V24.7273H21.6688V14.03Z" fill="#FFA53B"/>
<path fill-rule="evenodd" clip-rule="evenodd" d="M22.9869 12.3254C22.9811 12.3081 22.9748 12.2907 22.9679 12.2734L22.0188 9.87477C21.7665 9.23703 20.9435 9.06649 20.4585 9.55145L19.009 11.001C18.524 11.486 18.6945 12.309 19.3323 12.5613L21.7308 13.5104C22.2786 13.7271 22.8223 13.4083 22.9869 12.9291C23.1515 13.4083 23.6952 13.7271 24.2429 13.5104L26.6415 12.5613C27.2793 12.309 27.4497 11.486 26.9648 11.001L25.5153 9.55145C25.0303 9.06649 24.2073 9.23703 23.955 9.87477L23.0059 12.2734C22.999 12.2907 22.9927 12.3081 22.9869 12.3254Z" fill="#FFB43B"/>
<path d="M29.4226 12.6387H16.5581C15.9661 12.6387 15.4861 13.1186 15.4861 13.7107V14.7827C15.4861 15.3748 15.9661 15.8548 16.5581 15.8548H29.4226C30.0147 15.8548 30.4946 15.3748 30.4946 14.7827V13.7107C30.4946 13.1186 30.0147 12.6387 29.4226 12.6387Z" fill="#E23D5A"/>
<path d="M21.666 12.6382H24.3136V15.8543H21.666V12.6382Z" fill="#FFB43B"/>
<path d="M38.8789 21.4883V13.1211H42.6875C44.3984 13.1211 45.2539 13.8691 45.2539 15.3652C45.2539 16.377 44.5879 17.2148 43.2559 17.8789L45.9102 21.5H43.9531L41.4043 17.8496V17.1406C42.8887 16.8867 43.6309 16.3105 43.6309 15.4121C43.6309 14.7949 43.2832 14.4863 42.5879 14.4863H40.4609V21.4883H38.8789ZM49.0977 15.3477C50.9648 15.3477 51.8984 16.3008 51.8984 18.207C51.8984 18.4609 51.8809 18.7148 51.8457 18.9688H47.7617C47.7617 19.8359 48.3984 20.2695 49.6719 20.2695C50.293 20.2695 50.9141 20.2109 51.5352 20.0938V21.3242C50.9922 21.4414 50.332 21.5 49.5547 21.5C47.3242 21.5 46.209 20.4512 46.209 18.3535C46.209 16.3496 47.1719 15.3477 49.0977 15.3477ZM47.7617 17.8906H50.3867V17.8438C50.3867 16.9922 49.957 16.5664 49.0977 16.5664C48.2773 16.5664 47.832 17.0078 47.7617 17.8906ZM53.0645 21.5V15.3477C53.0645 13.6602 53.9863 12.8164 55.8301 12.8164C56.334 12.8164 56.791 12.8945 57.2012 13.0508V14.2812C56.8145 14.125 56.3945 14.0469 55.9414 14.0469C55.0586 14.0469 54.6172 14.4805 54.6172 15.3477H56.4629V16.5781H54.6172V21.5H53.0645ZM60.0078 15.3477C61.875 15.3477 62.8086 16.3008 62.8086 18.207C62.8086 18.4609 62.791 18.7148 62.7559 18.9688H58.6719C58.6719 19.8359 59.3086 20.2695 60.582 20.2695C61.2031 20.2695 61.8242 20.2109 62.4453 20.0938V21.3242C61.9023 21.4414 61.2422 21.5 60.4648 21.5C58.2344 21.5 57.1191 20.4512 57.1191 18.3535C57.1191 16.3496 58.082 15.3477 60.0078 15.3477ZM58.6719 17.8906H61.2969V17.8438C61.2969 16.9922 60.8672 16.5664 60.0078 16.5664C59.1875 16.5664 58.7422 17.0078 58.6719 17.8906ZM63.9746 21.5V15.3477H65.1758L65.3691 16.1328C65.9082 15.6094 66.4785 15.3477 67.0801 15.3477V16.6016C66.502 16.6016 65.9844 16.8418 65.5273 17.3223V21.5H63.9746ZM70.4492 15.4355C70.4492 13.8926 71.4453 13.1211 73.4375 13.1211C74.1602 13.1211 74.8633 13.2188 75.5469 13.4141V14.6445C74.8633 14.4492 74.1855 14.3516 73.5137 14.3516C72.5059 14.3516 72.002 14.7031 72.002 15.4062C72.002 16.2266 72.4023 16.6367 73.2031 16.6367H75.1836V15.8047H76.0215L76.6191 16.6367H77.6855V17.8672H76.7363V18.6289C76.7363 20.5547 75.666 21.5176 73.5254 21.5176C71.4746 21.5176 70.4492 20.7031 70.4492 19.0742C70.4492 18.1875 70.8066 17.5762 71.5215 17.2402C70.8066 16.9082 70.4492 16.3066 70.4492 15.4355ZM73.2148 17.8672C72.4062 17.8672 72.002 18.2598 72.002 19.0449C72.002 19.8613 72.5117 20.2695 73.5312 20.2695C74.6328 20.2695 75.1836 19.7188 75.1836 18.6172V17.8672H73.2148ZM83.6562 15.3477C85.5234 15.3477 86.457 16.3008 86.457 18.207C86.457 18.4609 86.4395 18.7148 86.4043 18.9688H82.3203C82.3203 19.8359 82.957 20.2695 84.2305 20.2695C84.8516 20.2695 85.4727 20.2109 86.0938 20.0938V21.3242C85.5508 21.4414 84.8906 21.5 84.1133 21.5C81.8828 21.5 80.7676 20.4512 80.7676 18.3535C80.7676 16.3496 81.7305 15.3477 83.6562 15.3477ZM82.3203 17.8906H84.9453V17.8438C84.9453 16.9922 84.5156 16.5664 83.6562 16.5664C82.8359 16.5664 82.3906 17.0078 82.3203 17.8906ZM87.3301 19.584C87.3301 18.3613 88.2207 17.75 90.002 17.75C90.4199 17.75 90.8379 17.7891 91.2559 17.8672V17.4043C91.2559 16.8535 90.8594 16.5781 90.0664 16.5781C89.3945 16.5781 88.6484 16.6758 87.8281 16.8711V15.6406C88.6484 15.4453 89.3945 15.3477 90.0664 15.3477C91.8945 15.3477 92.8086 16.0234 92.8086 17.375V21.5H91.9062L91.3555 20.9492C90.8203 21.3164 90.2305 21.5 89.5859 21.5C88.082 21.5 87.3301 20.8613 87.3301 19.584ZM91.2559 18.9219C90.8652 18.8438 90.4473 18.8047 90.002 18.8047C89.2559 18.8047 88.8828 19.0586 88.8828 19.5664C88.8828 20.1133 89.1953 20.3867 89.8203 20.3867C90.3359 20.3867 90.8145 20.2266 91.2559 19.9062V18.9219ZM94.2793 21.5V15.3477H95.4805L95.6738 16.1328C96.2129 15.6094 96.7832 15.3477 97.3848 15.3477V16.6016C96.8066 16.6016 96.2891 16.8418 95.832 17.3223V21.5H94.2793ZM98.2637 21.5V15.3477H99.4648L99.6582 16.25C100.248 15.6484 100.92 15.3477 101.674 15.3477C103.131 15.3477 103.859 16.1055 103.859 17.6211V21.5H102.307V17.6211C102.307 16.9414 101.969 16.6016 101.293 16.6016C100.789 16.6016 100.297 16.8027 99.8164 17.2051V21.5H98.2637Z" fill="black"/>
</g>
<defs>
<filter id="filter0_d_78_3" x="0" y="0" width="119" height="38" filterUnits="userSpaceOnUse" color-interpolation-filters="sRGB">
<feFlood flood-opacity="0" result="BackgroundImageFix"/>
<feColorMatrix in="SourceAlpha" type="matrix" values="0 0 0 0 0 0 0 0 0 0 0 0 0 0 0 0 0 0 127 0" result="hardAlpha"/>
<feOffset dy="2"/>
<feGaussianBlur stdDeviation="1"/>
<feComposite in2="hardAlpha" operator="out"/>
<feColorMatrix type="matrix" values="0 0 0 0 0 0 0 0 0 0 0 0 0 0 0 0 0 0 0.25 0"/>
<feBlend mode="normal" in2="BackgroundImageFix" result="effect1_dropShadow_78_3"/>
<feBlend mode="normal" in="SourceGraphic" in2="effect1_dropShadow_78_3" result="shape"/>
</filter>
</defs>
</svg>
